<svg height="434pt" viewBox="0 -27 434.227 434" width="434pt" xmlns="http://www.w3.org/2000/svg"><path d="m347.046875 380.523438c-52.015625 0-86.957031-44.964844-86.957031-86.957032 0-3.863281 3.132812-6.996094 6.996094-6.996094 3.867187 0 7 3.132813 7 6.996094 0 35.238282 29.316406 72.960938 72.960937 72.960938s72.960937-37.722656 72.960937-72.960938c0-35.234375-29.316406-72.960937-72.960937-72.960937-21.921875 0-40.253906 10.703125-52.394531 22.738281l44.511718-.757812c.039063-.003907.082032-.003907.121094-.003907 3.808594 0 6.929688 3.054688 6.992188 6.878907.066406 3.863281-3.011719 7.046874-6.875 7.113281l-59.386719 1.015625c-.261719.019531-.519531.023437-.785156.015625l-.378907.003906c-1.890624.054687-3.726562-.703125-5.066406-2.046875-1.339844-1.339844-2.078125-3.167969-2.050781-5.0625l1.039063-62.105469c.0625-3.824219 3.183593-6.878906 6.992187-6.878906h.117187c3.863282.066406 6.945313 3.25 6.878907 7.113281l-.726563 43.5c14.472656-13.941406 35.519532-25.515625 61.007813-25.515625 52.015625 0 86.957031 44.960938 86.957031 86.953125 0 41.996094-34.941406 86.957032-86.953125 86.957032zm0 0"/><path d="m268.136719 312.546875h-221.160157c-25.902343 0-46.976562-21.074219-46.976562-46.976563v-218.496093c0-25.902344 21.074219-46.9765628 46.976562-46.9765628h259.863282c25.902344 0 46.972656 21.0742188 46.972656 46.9765628v166.535156c0 3.863281-3.128906 6.996094-6.996094 6.996094-3.863281 0-6.996094-3.132813-6.996094-6.996094v-166.535156c0-18.1875-14.796874-32.980469-32.980468-32.980469h-259.863282c-18.1875 0-32.984374 14.792969-32.984374 32.980469v218.496093c0 18.1875 14.796874 32.984376 32.984374 32.984376h221.160157c3.863281 0 6.996093 3.132812 6.996093 6.996093s-3.132812 6.996094-6.996093 6.996094zm0 0"/><path d="m346.816406 95.394531h-339.820312c-3.863282 0-6.996094-3.132812-6.996094-6.996093 0-3.867188 3.132812-6.996094 6.996094-6.996094h339.820312c3.867188 0 6.996094 3.128906 6.996094 6.996094 0 3.863281-3.128906 6.996093-6.996094 6.996093zm0 0"/><path d="m100.324219 67.628906c-10.78125 0-19.554688-8.773437-19.554688-19.554687s8.773438-19.554688 19.554688-19.554688c10.785156 0 19.554687 8.773438 19.554687 19.554688s-8.769531 19.554687-19.554687 19.554687zm0-25.117187c-3.066407 0-5.5625 2.496093-5.5625 5.5625 0 3.066406 2.496093 5.5625 5.5625 5.5625 3.066406 0 5.5625-2.496094 5.5625-5.5625 0-3.066407-2.496094-5.5625-5.5625-5.5625zm0 0"/><path d="m43.914062 67.453125c-10.785156 0-19.554687-8.773437-19.554687-19.554687 0-10.785157 8.769531-19.554688 19.554687-19.554688 10.78125 0 19.554688 8.769531 19.554688 19.554688 0 10.78125-8.773438 19.554687-19.554688 19.554687zm0-25.117187c-3.066406 0-5.5625 2.496093-5.5625 5.5625 0 3.066406 2.496094 5.5625 5.5625 5.5625 3.066407 0 5.5625-2.496094 5.5625-5.5625 0-3.070313-2.496093-5.5625-5.5625-5.5625zm0 0"/><path d="m156.738281 67.804688c-10.78125 0-19.554687-8.769532-19.554687-19.554688 0-10.78125 8.773437-19.554688 19.554687-19.554688 10.785157 0 19.554688 8.773438 19.554688 19.554688 0 10.785156-8.773438 19.554688-19.554688 19.554688zm0-25.117188c-3.066406 0-5.5625 2.496094-5.5625 5.5625 0 3.070312 2.496094 5.5625 5.5625 5.5625 3.066407 0 5.5625-2.496094 5.5625-5.5625s-2.496093-5.5625-5.5625-5.5625zm0 0"/></svg>